<svg id="success-order" xmlns="http://www.w3.org/2000/svg" width="213.984" height="213.984" viewBox="0 0 213.984 213.984">
  <path id="Path_164" data-name="Path 164" d="M178.628,168.185H120.769l.142-19.136a3.135,3.135,0,0,0-3.111-3.158h-.024A3.135,3.135,0,0,0,114.642,149l-.142,19.183H104a3.135,3.135,0,1,0,0,6.269h74.624a8.755,8.755,0,0,1,0,17.509H143.274a3.135,3.135,0,0,0,0,6.269h25.374a8.755,8.755,0,1,1,0,17.509h-32.9a3.135,3.135,0,1,0,0,6.269h23.606a8.755,8.755,0,0,1,0,17.509H129.131a3.135,3.135,0,0,0,0,6.269h19.081a8.755,8.755,0,1,1,0,17.509H69.98a21.849,21.849,0,0,1-8.1-1.55l-19.589-7.78V174.454H49.5a29.9,29.9,0,0,0,20.211-7.844L85.368,152.3a30.089,30.089,0,0,0,9.748-21.685l.2-22.868h7.593A11.939,11.939,0,0,1,114.843,119.8l-.1,14.461a3.135,3.135,0,0,0,3.112,3.157h.023a3.135,3.135,0,0,0,3.134-3.112l.1-14.455a18.208,18.208,0,0,0-18.207-18.37H94.276a5.251,5.251,0,0,0-5.224,5.165l-.205,23.9a23.785,23.785,0,0,1-7.708,17.131L65.483,161.982a23.639,23.639,0,0,1-15.983,6.2H42.291v-8.266a7.323,7.323,0,0,0-7.314-7.314H7.314A7.323,7.323,0,0,0,0,159.919v28.319a3.135,3.135,0,0,0,6.269,0V159.919a1.046,1.046,0,0,1,1.045-1.045H34.978a1.046,1.046,0,0,1,1.045,1.045V265.739a1.046,1.046,0,0,1-1.045,1.045H7.314a1.046,1.046,0,0,1-1.045-1.045v-62.03a3.135,3.135,0,0,0-6.269,0v62.03a7.323,7.323,0,0,0,7.314,7.314H34.978a7.323,7.323,0,0,0,7.314-7.314v-5.025l17.275,6.861a28.092,28.092,0,0,0,10.413,1.992h78.232a15.017,15.017,0,0,0,12.177-23.813,15.017,15.017,0,0,0,10.988-23.992,15.017,15.017,0,0,0,9.366-23.678,15.024,15.024,0,0,0-2.114-29.9Z" transform="translate(0 -59.069)" fill="#dc2814"/>
  <path id="Path_165" data-name="Path 165" d="M400,0H350.813A11.506,11.506,0,0,0,339.32,11.493V18.47a3.135,3.135,0,0,0,6.269,0V11.493a5.23,5.23,0,0,1,5.224-5.224H400a5.23,5.23,0,0,1,5.224,5.224V57.64A5.23,5.23,0,0,1,400,62.865H386.41a7.33,7.33,0,0,0-6.352,3.687L375.4,74.7l-4.653-8.15a7.329,7.329,0,0,0-6.351-3.688H350.813a5.23,5.23,0,0,1-5.224-5.224V32.75a3.135,3.135,0,1,0-6.269,0V57.64a11.506,11.506,0,0,0,11.493,11.493H364.4a1.047,1.047,0,0,1,.907.527l5.561,9.739a5.235,5.235,0,0,0,4.536,2.634h0a5.235,5.235,0,0,0,4.537-2.634l5.56-9.739a1.047,1.047,0,0,1,.907-.527H400A11.506,11.506,0,0,0,411.49,57.641V11.493A11.506,11.506,0,0,0,400,0Z" transform="translate(-197.505 0)" fill="#dc2814"/>
  <path id="Path_166" data-name="Path 166" d="M397.721,80.014h.107a5.231,5.231,0,0,0,3.852-1.816L418.2,59a3.135,3.135,0,1,0-4.752-4.089L397.688,73.225l-7.419-7.931a3.135,3.135,0,0,0-4.579,4.283l8.214,8.781a5.234,5.234,0,0,0,3.816,1.656Z" transform="translate(-224.004 -31.326)" fill="#dc2814"/>
</svg>
